<svg xmlns:mydata="http://www.w3.org/2000/svg" mydata:contrastcolor="ffffff" mydata:template="Contrast" mydata:presentation="2.5" mydata:layouttype="undefined" mydata:specialfontid="undefined" mydata:id1="240" mydata:id2="058" mydata:companyname="PlanDecks" mydata:companytagline="" version="1.1" xmlns="http://www.w3.org/2000/svg" xmlns:xlink="http://www.w3.org/1999/xlink" viewBox="0 30 550 410">
    <g fill="#fe5000" fill-rule="none" stroke="none" stroke-width="1" stroke-linecap="butt" stroke-linejoin="miter" stroke-miterlimit="10" stroke-dasharray="" stroke-dashoffset="0" font-family="none" font-weight="none" font-size="none" text-anchor="none" style="mix-blend-mode: normal">
        <g data-paper-data="{&quot;isGlobalGroup&quot;:true,&quot;bounds&quot;:{&quot;x&quot;:83.29936905676689,&quot;y&quot;:115.00000000000003,&quot;width&quot;:383.4012618864663,&quot;height&quot;:240.00000000000003}}">

            <g data-paper-data="{&quot;isIcon&quot;:&quot;true&quot;,&quot;iconType&quot;:&quot;icon&quot;,&quot;rawIconId&quot;:&quot;mpK6JOG54P1n4Mh5bq-izwZA7RlZYf2euxiy0N4CP1&quot;,&quot;source&quot;:&quot;ai&quot;,&quot;selectedEffects&quot;:{&quot;container&quot;:&quot;&quot;,&quot;transformation&quot;:&quot;&quot;,&quot;pattern&quot;:&quot;&quot;},&quot;isDetailed&quot;:false,&quot;iconStyle&quot;:&quot;standalone&quot;,&quot;bounds&quot;:{&quot;x&quot;:208.97191519673518,&quot;y&quot;:115.00000000000003,&quot;width&quot;:132.05616960652966,&quot;height&quot;:159.5675400189023},&quot;fillRule&quot;:&quot;evenodd&quot;,&quot;suitableAsStandaloneIcon&quot;:true}" fill-rule="evenodd">
                <g data-paper-data="{&quot;isPathIcon&quot;:true}">
                    <path d="M211.35292,115.672c-0.543,0.369 -1.265,1.047 -1.60501,1.50601c-0.615,0.829 -0.619,0.987 -0.697,26.17209l-0.079,25.33909l0.672,1.011c0.37,0.556 1.269,1.314 1.99901,1.68501c1.312,0.665 1.439,0.672 10.95404,0.591l9.62703,-0.083l1.058,-0.808c1.66201,-1.268 2.11101,-2.83101 1.92801,-6.70702c-0.128,-2.69601 -0.26,-3.37301 -0.804,-4.13801c-1.113,-1.56301 -1.91601,-1.79101 -6.30802,-1.79101c-3.79501,0 -3.99401,-0.03 -4.74302,-0.725l-0.781,-0.724l0.009,-13.38505c0.007,-10.05503 0.099,-13.50105 0.369,-13.85305c0.842,-1.096 1.452,-1.156 11.69404,-1.156h10.04303l0.909,0.765l0.909,0.765v3.94601c0,3.74401 -0.037,3.98801 -0.712,4.77502c-0.703,0.818 -0.766,0.831 -4.80202,0.977c-3.62001,0.131 -4.19501,0.223 -5.01302,0.807c-1.66401,1.187 -1.88301,2.09301 -1.88301,7.80803c0,2.82101 0.131,5.58402 0.291,6.14102c0.322,1.124 1.79001,2.79701 3.01801,3.44101c1.166,0.61 4.61902,0.548 5.57702,-0.101c1.315,-0.891 15.90405,-15.70505 16.44806,-16.70306c0.424,-0.777 0.536,-1.87501 0.617,-6.03102c0.098,-5.02602 0.108,-5.08902 0.872,-5.85402l0.774,-0.773l15.82305,0.111l15.82305,0.11l2.97601,0.777c8.25603,2.15501 14.58405,5.79002 20.16007,11.57804c7.43003,7.71403 11.09704,16.63006 11.06804,26.90709c-0.039,13.93905 -6.38302,25.49309 -18.23806,33.21811c-4.28401,2.79101 -9.24303,4.78802 -14.90105,5.99802c-2.58801,0.553 -4.12801,0.618 -17.50606,0.738c-13.00904,0.116 -14.77205,0.077 -15.57905,-0.34c-1.222,-0.632 -1.398,-1.48601 -1.221,-5.94902c0.138,-3.47301 0.196,-3.76701 0.845,-4.29201c0.664,-0.537 1.36,-0.564 14.51405,-0.564c15.22205,0 16.79906,-0.132 21.35807,-1.78101c9.00303,-3.25801 16.22905,-10.83404 18.59106,-19.49407c0.922,-3.38201 0.987,-10.81704 0.122,-14.03505c-2.25301,-8.38403 -7.60403,-14.93105 -15.39305,-18.83906c-4.03101,-2.02201 -8.04903,-2.93401 -12.88404,-2.92501c-3.69301,0.006 -5.90802,0.367 -9.70103,1.58101l-2.78801,0.893l-13.61105,13.43205c-7.48603,7.38803 -13.84305,13.85305 -14.12805,14.36805c-0.437,0.792 -0.517,1.73801 -0.517,6.14502v5.20902l-1.54301,1.54401l-16.31406,0.081l-16.31406,0.081l-1.188,0.786c-0.345,0.228 -0.635,0.342 -0.879,0.518c-1.299,0.94 -1.299,3.67701 -1.289,35.08812c0.001,2.90801 0.002,6.06102 0.002,9.48203v42.23814l0.664,0.977c0.366,0.537 1.041,1.255 1.49901,1.59501c0.827,0.613 1.028,0.619 23.04808,0.69l22.21308,0.072l1.159,-0.663c0.721,-0.411 1.42,-1.156 1.84701,-1.96501l0.687,-1.302v-17.10106v-1.468c0.001,-14.41205 0.001,-16.59706 -1.089,-17.75306c-0.231,-0.245 -0.512,-0.443 -0.851,-0.702l-1.116,-0.852h-9.97403c-9.61303,0 -10.00303,0.022 -10.79004,0.609c-1.93401,1.444 -2.02601,1.76301 -2.12701,7.40403c-0.086,4.77902 -0.046,5.26302 0.538,6.46902c1.035,2.13701 1.94701,2.50801 6.17902,2.50801c3.73301,0 5.06502,0.328 5.45502,1.343c0.1,0.263 0.183,2.26801 0.183,4.45602c0,3.83001 -0.027,4.00501 -0.725,4.70402l-0.725,0.725h-21.03307l-0.725,-0.725l-0.725,-0.725v-61.21921l0.781,-0.725l0.782,-0.724h20.55207l0.909,0.765l0.909,0.765v3.83401c0,2.18201 -0.138,4.09201 -0.319,4.43101c-0.572,1.069 -2.06201,1.433 -5.86602,1.433c-3.53901,0 -3.54701,0.002 -4.58202,0.911c-1.294,1.136 -1.64001,2.34501 -1.64001,5.73702c0,3.36801 0.321,4.50102 1.63601,5.77502l1.053,1.021l26.79809,0.079c29.4921,0.088 29.9851,0.065 36.88412,-1.72701c19.10306,-4.96002 34.36312,-19.99407 39.10013,-38.52213c1.226,-4.79202 1.59301,-8.68903 1.414,-14.98405c-0.168,-5.90302 -0.912,-10.30803 -2.55401,-15.11905c-6.18102,-18.10406 -21.45007,-31.20611 -41.26614,-35.41112l-3.23401,-0.687l-40.79614,-0.081l-40.79514,-0.081zM285.11117,153.42713c-3.13701,0.555 -3.91201,1.188 -14.75205,12.03904l-10.27603,10.28703l-0.025,2.74601c-0.025,2.62201 0.011,2.78601 0.801,3.61101l0.828,0.864l14.05405,-0.004c15.18605,-0.004 15.56905,-0.037 18.84206,-1.63901c0.889,-0.435 2.44801,-1.56801 3.46401,-2.51901c5.80202,-5.42702 6.21302,-14.39905 0.929,-20.27607c-3.44301,-3.83001 -9.16903,-5.93902 -13.86505,-5.10902z"/>
                </g>
            </g>
        </g>
    </g>
</svg>
