<svg xmlns:mydata="http://www.w3.org/2000/svg" mydata:contrastcolor="ffffff" mydata:template="Contrast" mydata:presentation="2.5" mydata:layouttype="undefined" mydata:specialfontid="undefined" mydata:id1="240" mydata:id2="058" mydata:companyname="PlanDecks" mydata:companytagline="" version="1.1" xmlns="http://www.w3.org/2000/svg" xmlns:xlink="http://www.w3.org/1999/xlink" viewBox="0 30 550 410"><g fill="#fe5000" fill-rule="none" stroke="none" stroke-width="1" stroke-linecap="butt" stroke-linejoin="miter" stroke-miterlimit="10" stroke-dasharray="" stroke-dashoffset="0" font-family="none" font-weight="none" font-size="none" text-anchor="none" style="mix-blend-mode: normal"><g data-paper-data="{&quot;isGlobalGroup&quot;:true,&quot;bounds&quot;:{&quot;x&quot;:83.29936905676689,&quot;y&quot;:115.00000000000003,&quot;width&quot;:383.4012618864663,&quot;height&quot;:240.00000000000003}}"><g data-paper-data="{&quot;isPrimaryText&quot;:true}" fill-rule="nonzero"><path d="M105.70873,308.02652c-6.67971,0 -9.76819,0 -11.20468,0v0h-11.20468v0v0v31.81843v0v14.86775h11.20468v-14.86775c3.1603,0 6.89519,0 11.06103,0c12.35388,0 16.80702,-9.26541 16.80702,-15.8733c0,-7.18249 -5.17139,-15.94513 -16.66337,-15.94513zM110.95195,327.92202c-0.50277,0.50277 -1.00555,0.8619 -1.65197,1.22102c-1.00555,0.43095 -2.22657,0.64642 -3.73489,0.64642h-11.06103v-11.70746h11.20468c2.2984,0 3.95037,0.5746 5.09957,1.86745c1.07737,1.22102 1.50832,2.873 1.50832,4.02219c0,1.07737 -0.35912,2.72935 -1.36467,3.95037z" data-paper-data="{&quot;glyphName&quot;:&quot;P&quot;,&quot;glyphIndex&quot;:0,&quot;firstGlyphOfWord&quot;:true,&quot;word&quot;:1}"></path><path d="M137.88629,344.65722v0v-36.63069h-11.20468v46.68618h11.13286h0.07182h22.48119v-10.05548z" data-paper-data="{&quot;glyphName&quot;:&quot;L&quot;,&quot;glyphIndex&quot;:1,&quot;word&quot;:1}"></path><path d="M199.22474,354.7127h12.92848l-25.06689,-46.68618v0v0v0v0l-25.13871,46.68618h12.92848l3.37577,-6.53606h17.5971zM182.77684,339.414l4.30949,-8.18804l4.23767,8.18804z" data-paper-data="{&quot;glyphName&quot;:&quot;A&quot;,&quot;glyphIndex&quot;:2,&quot;word&quot;:1}"></path><path d="M250.72319,354.7127v-46.68618l-25.21054,21.47564v-21.47564h-11.20468v46.68618l25.21054,-21.11652v21.11652z" data-paper-data="{&quot;glyphName&quot;:&quot;И&quot;,&quot;glyphIndex&quot;:3,&quot;word&quot;:1}"></path><path d="M272.05518,308.31382h-17.5971v0h-0.14365v46.68618h0.5746v0h17.16615c12.85666,0 23.34309,-10.48643 23.34309,-23.34309c0,-12.92848 -10.48643,-23.34309 -23.34309,-23.34309zM280.96147,340.5632c-2.37022,2.37022 -5.53052,3.66307 -8.90629,3.66307h-6.53606v-25.21054h6.46424v0c3.37577,0 6.60789,1.29285 8.97811,3.66307c2.37022,2.44205 3.66307,5.60234 3.66307,8.97811c0,3.37577 -1.29285,6.53606 -3.66307,8.90629z" data-paper-data="{&quot;glyphName&quot;:&quot;D&quot;,&quot;glyphIndex&quot;:4,&quot;word&quot;:1}"></path><path d="M310.91244,336.39735h18.1717v-10.05548h-18.1717v-8.25986h21.40382v-10.05548h-32.6085v46.68618h32.6085v-10.05548h-21.40382z" data-paper-data="{&quot;glyphName&quot;:&quot;E&quot;,&quot;glyphIndex&quot;:5,&quot;word&quot;:1}"></path><path d="M365.64301,341.64057c-2.37022,1.79562 -5.31504,2.80117 -8.40351,2.80117c-3.73489,0 -7.18249,-1.4365 -9.84001,-4.09402c-2.65752,-2.65752 -4.09402,-6.10512 -4.09402,-9.84001c0,-3.73489 1.4365,-7.25431 4.09402,-9.91183c2.65752,-2.65752 6.10512,-4.09402 9.84001,-4.09402c3.08847,0 6.03329,1.00555 8.40351,2.80117l7.18249,-7.11066c-4.23767,-3.59124 -9.62454,-5.74599 -15.586,-5.74599c-13.21578,0 -23.98951,10.77373 -23.98951,24.06134c0,13.21578 10.77373,23.98951 23.98951,23.98951c5.96147,0 11.34833,-2.15475 15.586,-5.67417z" data-paper-data="{&quot;glyphName&quot;:&quot;C&quot;,&quot;glyphIndex&quot;:6,&quot;word&quot;:1}"></path><path d="M409.45619,354.7127h15.8733l-24.27681,-25.35419l21.40382,-21.33199h-15.8733l-18.60265,18.60265v-18.60265h-11.20468v46.68618h11.20468v-12.21023l5.09957,-5.17139z" data-paper-data="{&quot;glyphName&quot;:&quot;K&quot;,&quot;glyphIndex&quot;:7,&quot;word&quot;:1}"></path><path d="M447.23609,354.78453c3.95037,0 7.25431,-0.43095 9.98366,-1.36467c2.65752,-0.93372 4.81227,-2.2984 6.39242,-4.09402c3.08847,-3.44759 3.08847,-7.25431 3.08847,-8.76264c0,-3.08847 -1.07737,-5.96147 -3.1603,-8.40351c-3.1603,-3.66307 -8.40351,-5.88964 -15.51418,-6.67971c-6.39242,-0.71825 -9.55271,-2.51387 -9.55271,-5.53052c0,-3.1603 4.81227,-4.23767 8.97811,-4.23767c4.02219,0 6.89519,1.22102 8.33169,3.23212c1.1492,1.50832 1.07737,3.66307 1.07737,3.66307v-0.07182h9.84001c0,-0.71825 -0.14365,-5.09957 -2.5857,-8.90629c-2.2984,-3.51942 -7.03884,-7.75709 -16.66337,-7.75709v0c-7.32614,0 -12.64118,1.93927 -15.94513,5.67417c-1.50832,1.7238 -3.23212,4.66862 -3.23212,9.04994c0,3.1603 1.07737,5.96147 3.23212,8.33169c1.50832,1.65197 3.51942,3.01665 5.96147,4.02219c2.5857,1.07737 5.81782,1.86745 9.48089,2.2984c5.96147,0.64642 9.62454,2.44205 9.62454,5.31504c0,2.72935 -2.873,4.38132 -9.33724,4.38132c-3.87854,0 -6.53606,-1.07737 -7.97256,-3.23212c-1.1492,-1.7238 -1.1492,-4.38132 -1.1492,-4.38132v0.07182l-9.84001,-0.14365c0,0.64642 -0.71825,7.32614 4.74044,12.35388c1.7238,1.50832 3.59124,2.873 5.88964,3.80672c2.44205,0.93372 5.24322,1.36467 8.33169,1.36467z" data-paper-data="{&quot;glyphName&quot;:&quot;S&quot;,&quot;glyphIndex&quot;:8,&quot;lastGlyphOfWord&quot;:true,&quot;word&quot;:1}"></path></g><g data-paper-data="{&quot;isIcon&quot;:&quot;true&quot;,&quot;iconType&quot;:&quot;icon&quot;,&quot;rawIconId&quot;:&quot;mpK6JOG54P1n4Mh5bq-izwZA7RlZYf2euxiy0N4CP1&quot;,&quot;source&quot;:&quot;ai&quot;,&quot;selectedEffects&quot;:{&quot;container&quot;:&quot;&quot;,&quot;transformation&quot;:&quot;&quot;,&quot;pattern&quot;:&quot;&quot;},&quot;isDetailed&quot;:false,&quot;iconStyle&quot;:&quot;standalone&quot;,&quot;bounds&quot;:{&quot;x&quot;:208.97191519673518,&quot;y&quot;:115.00000000000003,&quot;width&quot;:132.05616960652966,&quot;height&quot;:159.5675400189023},&quot;fillRule&quot;:&quot;evenodd&quot;,&quot;suitableAsStandaloneIcon&quot;:true}" fill-rule="evenodd"><g data-paper-data="{&quot;isPathIcon&quot;:true}"><path d="M211.35292,115.672c-0.543,0.369 -1.265,1.047 -1.60501,1.50601c-0.615,0.829 -0.619,0.987 -0.697,26.17209l-0.079,25.33909l0.672,1.011c0.37,0.556 1.269,1.314 1.99901,1.68501c1.312,0.665 1.439,0.672 10.95404,0.591l9.62703,-0.083l1.058,-0.808c1.66201,-1.268 2.11101,-2.83101 1.92801,-6.70702c-0.128,-2.69601 -0.26,-3.37301 -0.804,-4.13801c-1.113,-1.56301 -1.91601,-1.79101 -6.30802,-1.79101c-3.79501,0 -3.99401,-0.03 -4.74302,-0.725l-0.781,-0.724l0.009,-13.38505c0.007,-10.05503 0.099,-13.50105 0.369,-13.85305c0.842,-1.096 1.452,-1.156 11.69404,-1.156h10.04303l0.909,0.765l0.909,0.765v3.94601c0,3.74401 -0.037,3.98801 -0.712,4.77502c-0.703,0.818 -0.766,0.831 -4.80202,0.977c-3.62001,0.131 -4.19501,0.223 -5.01302,0.807c-1.66401,1.187 -1.88301,2.09301 -1.88301,7.80803c0,2.82101 0.131,5.58402 0.291,6.14102c0.322,1.124 1.79001,2.79701 3.01801,3.44101c1.166,0.61 4.61902,0.548 5.57702,-0.101c1.315,-0.891 15.90405,-15.70505 16.44806,-16.70306c0.424,-0.777 0.536,-1.87501 0.617,-6.03102c0.098,-5.02602 0.108,-5.08902 0.872,-5.85402l0.774,-0.773l15.82305,0.111l15.82305,0.11l2.97601,0.777c8.25603,2.15501 14.58405,5.79002 20.16007,11.57804c7.43003,7.71403 11.09704,16.63006 11.06804,26.90709c-0.039,13.93905 -6.38302,25.49309 -18.23806,33.21811c-4.28401,2.79101 -9.24303,4.78802 -14.90105,5.99802c-2.58801,0.553 -4.12801,0.618 -17.50606,0.738c-13.00904,0.116 -14.77205,0.077 -15.57905,-0.34c-1.222,-0.632 -1.398,-1.48601 -1.221,-5.94902c0.138,-3.47301 0.196,-3.76701 0.845,-4.29201c0.664,-0.537 1.36,-0.564 14.51405,-0.564c15.22205,0 16.79906,-0.132 21.35807,-1.78101c9.00303,-3.25801 16.22905,-10.83404 18.59106,-19.49407c0.922,-3.38201 0.987,-10.81704 0.122,-14.03505c-2.25301,-8.38403 -7.60403,-14.93105 -15.39305,-18.83906c-4.03101,-2.02201 -8.04903,-2.93401 -12.88404,-2.92501c-3.69301,0.006 -5.90802,0.367 -9.70103,1.58101l-2.78801,0.893l-13.61105,13.43205c-7.48603,7.38803 -13.84305,13.85305 -14.12805,14.36805c-0.437,0.792 -0.517,1.73801 -0.517,6.14502v5.20902l-1.54301,1.54401l-16.31406,0.081l-16.31406,0.081l-1.188,0.786c-0.345,0.228 -0.635,0.342 -0.879,0.518c-1.299,0.94 -1.299,3.67701 -1.289,35.08812c0.001,2.90801 0.002,6.06102 0.002,9.48203v42.23814l0.664,0.977c0.366,0.537 1.041,1.255 1.49901,1.59501c0.827,0.613 1.028,0.619 23.04808,0.69l22.21308,0.072l1.159,-0.663c0.721,-0.411 1.42,-1.156 1.84701,-1.96501l0.687,-1.302v-17.10106v-1.468c0.001,-14.41205 0.001,-16.59706 -1.089,-17.75306c-0.231,-0.245 -0.512,-0.443 -0.851,-0.702l-1.116,-0.852h-9.97403c-9.61303,0 -10.00303,0.022 -10.79004,0.609c-1.93401,1.444 -2.02601,1.76301 -2.12701,7.40403c-0.086,4.77902 -0.046,5.26302 0.538,6.46902c1.035,2.13701 1.94701,2.50801 6.17902,2.50801c3.73301,0 5.06502,0.328 5.45502,1.343c0.1,0.263 0.183,2.26801 0.183,4.45602c0,3.83001 -0.027,4.00501 -0.725,4.70402l-0.725,0.725h-21.03307l-0.725,-0.725l-0.725,-0.725v-61.21921l0.781,-0.725l0.782,-0.724h20.55207l0.909,0.765l0.909,0.765v3.83401c0,2.18201 -0.138,4.09201 -0.319,4.43101c-0.572,1.069 -2.06201,1.433 -5.86602,1.433c-3.53901,0 -3.54701,0.002 -4.58202,0.911c-1.294,1.136 -1.64001,2.34501 -1.64001,5.73702c0,3.36801 0.321,4.50102 1.63601,5.77502l1.053,1.021l26.79809,0.079c29.4921,0.088 29.9851,0.065 36.88412,-1.72701c19.10306,-4.96002 34.36312,-19.99407 39.10013,-38.52213c1.226,-4.79202 1.59301,-8.68903 1.414,-14.98405c-0.168,-5.90302 -0.912,-10.30803 -2.55401,-15.11905c-6.18102,-18.10406 -21.45007,-31.20611 -41.26614,-35.41112l-3.23401,-0.687l-40.79614,-0.081l-40.79514,-0.081zM285.11117,153.42713c-3.13701,0.555 -3.91201,1.188 -14.75205,12.03904l-10.27603,10.28703l-0.025,2.74601c-0.025,2.62201 0.011,2.78601 0.801,3.61101l0.828,0.864l14.05405,-0.004c15.18605,-0.004 15.56905,-0.037 18.84206,-1.63901c0.889,-0.435 2.44801,-1.56801 3.46401,-2.51901c5.80202,-5.42702 6.21302,-14.39905 0.929,-20.27607c-3.44301,-3.83001 -9.16903,-5.93902 -13.86505,-5.10902z"></path></g></g></g></g></svg>